<svg xmlns="http://www.w3.org/2000/svg" width="34" height="34" viewBox="0 0 33 32">
    <path fill="#FC8D33" fill-rule="evenodd" d="M16.4 21.697c-2.946 0-5.334-2.445-5.334-5.46 0-3.017 2.388-5.461 5.333-5.461 2.946 0 5.334 2.444 5.334 5.46s-2.388 5.46-5.334 5.46m9.943-2.078a6.054 6.054 0 0 0 6.057-6.05 6.054 6.054 0 0 0-6.057-6.05 6.052 6.052 0 0 0-4.944 2.555 7.698 7.698 0 0 0-.222-.175 6.021 6.021 0 0 0 1.383-3.848A6.053 6.053 0 0 0 16.502 0a6.054 6.054 0 0 0-6.057 6.05c0 1.462.519 2.803 1.383 3.848-.12.091-.237.185-.352.283a6.053 6.053 0 0 0-5.02-2.663A6.054 6.054 0 0 0 .4 13.568a6.054 6.054 0 0 0 6.057 6.05c1.03 0 1.999-.257 2.848-.709.08.201.168.398.264.59a6.053 6.053 0 0 0-5.283 6.002 6.053 6.053 0 0 0 6.057 6.05 6.053 6.053 0 0 0 5.81-7.767 7.848 7.848 0 0 0 .93-.014 6.053 6.053 0 0 0 5.805 7.78 6.053 6.053 0 0 0 6.058-6.05 6.053 6.053 0 0 0-5.498-6.023c.078-.158.15-.318.217-.48a6.039 6.039 0 0 0 2.678.621"/>
</svg>
